<svg xmlns="http://www.w3.org/2000/svg" viewBox="0 0 333334 221403" shape-rendering="geometricPrecision" text-rendering="geometricPrecision" image-rendering="optimizeQuality" fill-rule="evenodd" clip-rule="evenodd"><path d="M167175 0c12731 0 23054 10322 23054 23054 0 5487-1919 10526-5120 14484 13956 1745 27693 5534 40669 11369 47486 21352 84586 69959 84624 145755 0 2831-2295 5127-5127 5127v20H29076c-2843 0-5147-2304-5147-5147 0-169 8-335 24-500 200-75508 37238-123950 84619-145255 12976-5835 26713-9625 40669-11369-3201-3958-5120-8997-5120-14484C144121 10322 154443 0 167175 0zM5147 221403c-2843 0-5147-2304-5147-5147s2305-5147 5147-5147h323039c2843 0 5147 2304 5147 5147s-2305 5147-5147 5147H5147zm29124-31889h265807c-1655-68170-35477-111901-78482-131239-17140-7707-35769-11561-54421-11561-18653 0-37282 3854-54422 11561-43005 19338-76827 63069-78482 131239zm31763-32924c-843 2709-3724 4221-6434 3378-2709-843-4221-3724-3378-6434 5141-16477 13240-30059 24007-41029 10731-10931 24055-19197 39691-25084 2654-999 5615 342 6615 2996 999 2654-342 5615-2995 6615-14254 5367-26340 12839-35991 22671-9614 9794-16871 22003-21515 36888z"/></svg>