<svg xmlns="http://www.w3.org/2000/svg" viewBox="0 0 305339 333334" shape-rendering="geometricPrecision" text-rendering="geometricPrecision" image-rendering="optimizeQuality" fill-rule="evenodd" clip-rule="evenodd"><path d="M168983 10195c-2136-2765-1625-6739 1140-8875 2766-2136 6739-1625 8875 1141 7168 9293 4154 19351 689 30913-3352 11187-7255 24208 920 37087 1876 2957 999 6876-1959 8752-2957 1876-6876 999-8751-1959-11271-17757-6476-33756-2358-47500 2474-8254 4625-15434 1443-19560zm70003 92878v43331c2270-72 4676-190 7090-309 16899-831 34234-1682 47337 11630 8515 8652 12584 21040 11839 34067-388 6788-2089 13774-5155 20498-3038 6665-7418 13065-13186 18742-13792 13574-35518 23064-65790 22069-3976 5978-8535 11540-13594 16600-19411 19411-46191 31460-75654 31460h-24760c-29462 0-56243-12049-75654-31460S-1 223510-1 194047v-90976c0-3505 2842-6346 6347-6346h226293c3505 0 6346 2842 6346 6346zm0 55986v34990c0 16607-3828 32361-10645 46424 22789-593 39165-8100 49694-18463 4638-4565 8143-9676 10558-14974 2388-5239 3713-10670 4014-15937 546-9545-2278-18462-8219-24498-9121-9267-23603-8556-37719-7862-2537 124-5063 248-7685 320zm-12693 34990v-84629H12693v84629c0 25958 10624 49563 27741 66679 17117 17117 40721 27741 66679 27741h24760c25958 0 49563-10625 66679-27742 17117-17117 27741-40720 27741-66679zM8847 333335c-3505 0-6346-2842-6346-6346 0-3505 2841-6346 6346-6346h224869c3505 0 6346 2841 6346 6346s-2841 6346-6346 6346H8847zM63588 10196c-2135-2765-1625-6739 1141-8875 2765-2136 6739-1625 8875 1141 7168 9293 4154 19351 689 30913-3353 11187-7255 24208 920 37088 1876 2957 999 6876-1958 8752s-6876 999-8752-1959c-11270-17758-6477-33756-2357-47500 2474-8254 4625-15433 1443-19559zm52698 0c-2136-2765-1625-6739 1140-8875 2766-2136 6739-1625 8875 1141 7167 9293 4154 19351 689 30913-3352 11187-7254 24208 920 37088 1876 2957 999 6876-1958 8752s-6876 999-8752-1959c-11271-17758-6477-33756-2357-47500 2473-8254 4625-15433 1443-19559z" fill-rule="nonzero"/></svg>