<svg xmlns="http://www.w3.org/2000/svg" viewBox="0 0 333197 333352" shape-rendering="geometricPrecision" text-rendering="geometricPrecision" image-rendering="optimizeQuality" fill-rule="evenodd" clip-rule="evenodd"><path d="M67287 156743c0-2853 2313-5166 5166-5166s5166 2313 5166 5166v100325c0 119-4 238-12 356 28 1510 63 3169 98 4827 292 13923 585 27850-1575 42004-216 1417-384 2869-559 4390-1041 9034-2311 20047-10877 24183-723 349-1488 514-2240 513v12H51342c-450 0-886-57-1302-166-3206-651-6094-2391-8642-5300-2254-2573-4241-6113-5939-10684-176-473-278-954-311-1434l-11 1c-790-10683-1314-21557-1527-32649-209-10892-106-21798 355-32719h-12V137786c-10601-3606-18533-9803-24117-18638C3823 109634 717 97177 82 81700l-4-183c-358-11914 549-22565 2723-31950 2239-9670 5808-18024 10704-25058 5290-7600 11639-13406 18533-17413C40162 2373 49025 177 57807 505c8813 328 17493 3182 25213 8556 6415 4465 12176 10676 16796 18626 6394 10998 10397 27696 10755 44857 263 12657-1436 25653-5594 36903-4330 11712-11320 21618-21527 27552-6046 3515-13163 5589-21450 5761-2842 55-5191-2203-5246-5045-56-2841 2203-5191 5045-5246 6418-133 11884-1712 16486-4388 7925-4607 13467-12606 17007-22184 3711-10040 5226-21722 4988-33150-322-15467-3814-30316-9382-39893-3819-6571-8540-11676-13770-15317-6089-4238-12862-6487-19684-6741-6854-255-13814 1484-20240 5218-5601 3256-10813 8049-15224 14387-4156 5970-7200 13126-9131 21467-1983 8563-2809 18349-2481 29352l4 76c561 13653 3166 24430 8180 32363 4750 7515 11853 12583 21651 15252 2332 498 4081 2571 4081 5051v116439h-17c0 67-1 134-4 202-462 10869-569 21651-363 32356 198 10335 704 20795 1474 31362 1176 3014 2436 5262 3772 6787 904 1032 1800 1662 2686 1913h9172c2803-2414 3629-9581 4317-15547 198-1726 389-3373 599-4753 2057-13478 1776-26875 1495-40268-33-1562-66-3126-98-4840-19-179-28-361-28-545V156743zm226297 41598c-2853 0-5166-2313-5166-5166s2313-5166 5166-5166h29282v-87604c-1603-24851-7403-43872-16553-58236-7551-11853-17462-20607-29232-26916v287781c0 1698 0 3628 54 4975 239 5937 1309 13030 6802 12809 67-3 135-4 202-4v-17h11548c5811-803 5681-7830 5567-13959-28-1540-56-2910-56-2979v-87351c0-2853 2313-5166 5166-5166s5166 2314 5166 5166v87351c0 1946 8 2380 16 2817 196 10560 419 22677-14743 24356-322 63-654 96-994 96h-11668v-15c-14310 457-16869-12133-17294-22702-94-2352-94-3962-94-5378V7045h4c0-681 134-1373 420-2038 1125-2619 4161-3829 6780-2704 16780 7213 30775 18229 41036 34337 10076 15816 16443 36439 18165 63079 28 219 43 442 43 669v92786c0 2853-2313 5166-5166 5166h-34448zM172853 5380c0-2853 2313-5166 5166-5166s5166 2313 5166 5166v87231c0 2853-2313 5166-5166 5166s-5166-2313-5166-5166V5380zm21781 0c0-2853 2314-5166 5166-5166 2853 0 5166 2313 5166 5166v87231c0 2853-2313 5166-5166 5166s-5166-2313-5166-5166V5380zm22645 56c0-2853 2313-5166 5166-5166s5166 2313 5166 5166v94924c0 225-15 446-43 663-782 13288-3903 23437-9315 30502-5853 7642-14107 11583-24710 11895-2841 78-5209-2163-5287-5004s2163-5209 5004-5287c7327-215 12940-2820 16800-7859 4144-5410 6562-13676 7219-24853l-1-57V5436zm-66419-269c0-2853 2313-5166 5166-5166s5166 2313 5166 5166v94924l-2 117c435 8075 1772 14726 4182 19674 2132 4377 5148 7339 9188 8651 2178 708 3563 2730 3563 4903h9v178824c0 195-11 387-32 577-258 3331 182 5648 1249 7051 929 1221 2582 1958 4879 2264h11388c1505-571 2713-1533 3634-2869 1206-1750 2011-4207 2433-7338V159251c0-2853 2313-5166 5166-5166s5166 2313 5166 5166v153009h-2c0 206-13 415-38 626-614 4915-2018 9012-4249 12250-2311 3353-5424 5687-9374 6951-613 256-1285 398-1991 398h-12370v-10c-187 0-375-10-565-31-5343-602-9485-2641-12269-6300-2634-3463-3808-8104-3356-14053V136872c-5090-2574-8946-6795-11710-12469-3019-6198-4676-14178-5188-23649-28-217-42-438-42-662V5168z" fill-rule="nonzero"/></svg>